<svg width="626" height="454" viewBox="0 0 626 454" fill="none" xmlns="http://www.w3.org/2000/svg">
<path d="M435 51H602.951L624.5 69.1966V398.371L610.949 411.68L597.387 425H542H541.318L540.87 425.514L517.318 452.5H442.75H341.5H323.5V431.5V430.928L323.119 430.501L294.119 398.001L293.672 397.5H293H249.5H24.5835L1.5 376.34V24.1023L23.1405 1.5H119.5H282.859L304.5 24.1023V49.5V51H306H341.5H435Z" fill="url(#paint0_linear_68_23)" stroke="#78F2F1" stroke-width="3"/>
<path d="M20.4709 3H283.033L303 23.58V52.5H3V23.58L20.4709 3Z" fill="#78F2F1" fill-opacity="0.45"/>
<defs>
<linearGradient id="paint0_linear_68_23" x1="313" y1="0" x2="313" y2="446.5" gradientUnits="userSpaceOnUse">
<stop stop-color="#28A7A6"/>
<stop offset="1" stop-color="#59BBBA" stop-opacity="0"/>
</linearGradient>
</defs>
</svg>
