<svg width="626" height="454" viewBox="0 0 626 454" fill="none" xmlns="http://www.w3.org/2000/svg">
<path d="M341.5 452.5H323.5V431.5V430.928L323.119 430.501L294.119 398.001L293.672 397.5H293H249.5H24.5835L1.5 376.34V24.1023L23.1405 1.5H119.5H282.859L304.5 24.1023V49.5V51H306H341.5H435H602.951L624.5 69.1966V398.371L610.949 411.68L597.387 425H542H541.318L540.87 425.514L517.318 452.5H442.75H341.5Z" fill="url(#paint0_linear_68_19)" stroke="#78F2F1" stroke-width="3"/>
<path d="M20.4709 3H283.033L303 23.58V52.5H3V23.58L20.4709 3Z" fill="#78F2F1" fill-opacity="0.45"/>
<path d="M123.88 40.096C122.685 40.096 121.48 39.9787 120.264 39.744C119.069 39.488 117.96 39.1253 116.936 38.656C115.933 38.1653 115.123 37.5787 114.504 36.896C113.885 36.192 113.576 35.3813 113.576 34.464C113.576 33.2907 113.949 32.352 114.696 31.648C115.443 30.944 116.317 30.6133 117.32 30.656C118.109 30.6773 118.899 30.848 119.688 31.168C120.477 31.4667 121.277 31.7653 122.088 32.064C122.92 32.3627 123.752 32.512 124.584 32.512C125.416 32.512 125.992 32.4053 126.312 32.192C126.632 31.9787 126.792 31.6907 126.792 31.328C126.792 30.9013 126.568 30.5493 126.12 30.272C125.672 29.9947 125.107 29.7813 124.424 29.632L122.856 29.248C121.235 28.864 119.784 28.4373 118.504 27.968C117.224 27.4773 116.211 26.8373 115.464 26.048C114.739 25.2373 114.376 24.16 114.376 22.816C114.376 21.344 114.781 20.1493 115.592 19.232C116.403 18.2933 117.501 17.6107 118.888 17.184C120.275 16.7573 121.821 16.544 123.528 16.544C125.277 16.544 126.813 16.7253 128.136 17.088C129.459 17.4507 130.483 17.9733 131.208 18.656C131.955 19.3387 132.328 20.1707 132.328 21.152C132.328 22.1973 132.04 23.0187 131.464 23.616C130.909 24.192 130.163 24.48 129.224 24.48C128.605 24.48 127.955 24.3733 127.272 24.16C126.611 23.9467 125.907 23.744 125.16 23.552C124.435 23.3387 123.656 23.232 122.824 23.232C122.077 23.232 121.512 23.3493 121.128 23.584C120.744 23.7973 120.552 24.0853 120.552 24.448C120.552 24.896 120.808 25.2267 121.32 25.44C121.832 25.6533 122.675 25.9093 123.848 26.208L125.64 26.624C127.112 26.9867 128.403 27.424 129.512 27.936C130.621 28.448 131.485 29.12 132.104 29.952C132.723 30.784 133.032 31.872 133.032 33.216C133.032 34.8373 132.648 36.16 131.88 37.184C131.112 38.1867 130.045 38.9227 128.68 39.392C127.315 39.8613 125.715 40.096 123.88 40.096ZM137.53 40C136.591 40 135.844 39.7227 135.29 39.168C134.735 38.592 134.458 37.888 134.458 37.056V18.528C134.458 17.632 134.724 16.8747 135.258 16.256C135.812 15.6373 136.591 15.328 137.594 15.328C138.575 15.328 139.311 15.6373 139.802 16.256C140.314 16.8747 140.57 17.6427 140.57 18.56V28.256L140.666 28.288C140.772 27.392 141.05 26.5707 141.498 25.824C141.946 25.056 142.575 24.4373 143.386 23.968C144.196 23.4987 145.188 23.264 146.362 23.264C147.94 23.264 149.21 23.7013 150.17 24.576C151.13 25.4507 151.61 26.6453 151.61 28.16C151.61 29.2053 151.396 30.0373 150.97 30.656C150.564 31.2533 150.01 31.6693 149.306 31.904C148.602 32.1387 147.823 32.2453 146.97 32.224V32.768C148.868 32.768 150.212 33.152 151.002 33.92C151.812 34.6667 152.218 35.616 152.218 36.768C152.218 37.8347 151.898 38.656 151.258 39.232C150.618 39.808 149.85 40.0853 148.954 40.064C147.972 40.0427 147.162 39.7547 146.522 39.2C145.882 38.6453 145.348 37.8987 144.922 36.96L143.546 34.048C143.268 33.472 142.906 33.056 142.458 32.8C142.031 32.544 141.402 32.448 140.57 32.512V37.056C140.57 37.888 140.292 38.592 139.738 39.168C139.204 39.7227 138.468 40 137.53 40ZM141.242 30.336C141.242 30.6347 141.391 30.8587 141.69 31.008C142.01 31.136 142.66 31.2 143.642 31.2C144.602 31.2 145.242 31.136 145.562 31.008C145.882 30.88 146.042 30.656 146.042 30.336C146.042 30.0373 145.882 29.8133 145.562 29.664C145.242 29.5147 144.612 29.44 143.674 29.44C142.671 29.44 142.01 29.5147 141.69 29.664C141.391 29.8133 141.242 30.0373 141.242 30.336ZM153.392 19.552C153.392 18.6347 153.67 17.8987 154.224 17.344C154.8 16.768 155.59 16.48 156.592 16.48C157.659 16.48 158.448 16.7573 158.96 17.312C159.494 17.8667 159.76 18.6027 159.76 19.52C159.76 20.416 159.494 21.1413 158.96 21.696C158.448 22.2293 157.659 22.496 156.592 22.496C155.547 22.496 154.747 22.2293 154.192 21.696C153.659 21.1413 153.392 20.4267 153.392 19.552ZM156.592 40C155.59 40 154.843 39.7227 154.352 39.168C153.862 38.6133 153.616 37.92 153.616 37.088V26.144C153.616 25.2267 153.862 24.5013 154.352 23.968C154.843 23.4347 155.59 23.168 156.592 23.168C157.595 23.168 158.342 23.4347 158.832 23.968C159.344 24.5013 159.6 25.2053 159.6 26.08V37.088C159.6 37.92 159.334 38.6133 158.8 39.168C158.288 39.7227 157.552 40 156.592 40ZM164.778 40C163.733 40 162.944 39.7227 162.41 39.168C161.898 38.6133 161.642 37.92 161.642 37.088V18.528C161.642 17.6107 161.898 16.8533 162.41 16.256C162.944 15.6373 163.733 15.328 164.778 15.328C165.717 15.328 166.442 15.6373 166.954 16.256C167.466 16.8533 167.722 17.5893 167.722 18.464V37.088C167.722 37.92 167.466 38.6133 166.954 39.168C166.442 39.7227 165.717 40 164.778 40ZM172.747 40C171.702 40 170.912 39.7227 170.379 39.168C169.867 38.6133 169.611 37.92 169.611 37.088V18.528C169.611 17.6107 169.867 16.8533 170.379 16.256C170.912 15.6373 171.702 15.328 172.747 15.328C173.686 15.328 174.411 15.6373 174.923 16.256C175.435 16.8533 175.691 17.5893 175.691 18.464V37.088C175.691 37.92 175.435 38.6133 174.923 39.168C174.411 39.7227 173.686 40 172.747 40ZM185.366 40.416C183.894 40.416 182.528 40.2773 181.27 40C180.032 39.7013 179.04 39.2427 178.294 38.624C177.547 37.984 177.174 37.1413 177.174 36.096C177.174 35.1787 177.451 34.4213 178.006 33.824C178.56 33.2267 179.296 32.928 180.214 32.928C180.79 32.928 181.366 33.024 181.942 33.216C182.539 33.3867 183.168 33.5573 183.83 33.728C184.491 33.8987 185.206 33.984 185.974 33.984C186.656 33.984 187.115 33.952 187.35 33.888C187.584 33.8027 187.702 33.6533 187.702 33.44C187.702 33.184 187.552 33.0133 187.254 32.928C186.976 32.8427 186.496 32.736 185.814 32.608L183.51 32.16C182.55 31.968 181.611 31.7227 180.694 31.424C179.798 31.104 179.051 30.6347 178.454 30.016C177.878 29.3973 177.59 28.5547 177.59 27.488C177.59 26.0373 178.23 24.9067 179.51 24.096C180.811 23.2853 182.688 22.88 185.142 22.88C186.55 22.88 187.808 23.0187 188.918 23.296C190.048 23.5733 190.944 23.9893 191.606 24.544C192.267 25.0773 192.597 25.7493 192.597 26.56C192.619 27.4347 192.384 28.1387 191.894 28.672C191.403 29.2053 190.784 29.472 190.038 29.472C189.504 29.472 188.96 29.408 188.406 29.28C187.872 29.1307 187.286 28.9813 186.646 28.832C186.027 28.6613 185.312 28.5653 184.502 28.544C183.926 28.5013 183.456 28.5333 183.094 28.64C182.731 28.7467 182.55 28.9173 182.55 29.152C182.55 29.408 182.763 29.5893 183.19 29.696C183.616 29.7813 184.256 29.8987 185.11 30.048L187.382 30.464C188.768 30.6987 189.867 30.9973 190.678 31.36C191.51 31.7013 192.107 32.1813 192.47 32.8C192.832 33.4187 193.014 34.272 193.014 35.36C193.014 36.4907 192.683 37.44 192.022 38.208C191.382 38.9547 190.486 39.5093 189.334 39.872C188.182 40.2347 186.859 40.416 185.366 40.416Z" fill="#265073"/>
<defs>
<linearGradient id="paint0_linear_68_19" x1="313" y1="0" x2="313" y2="446.5" gradientUnits="userSpaceOnUse">
<stop stop-color="#28A7A6"/>
<stop offset="1" stop-color="#59BBBA" stop-opacity="0"/>
</linearGradient>
</defs>
</svg>
