<svg width="626" height="454" viewBox="0 0 626 454" fill="none" xmlns="http://www.w3.org/2000/svg">
<path d="M341.5 452.5H323.5V431.5V430.928L323.119 430.501L294.119 398.001L293.672 397.5H293H249.5H24.5835L1.5 376.34V24.1023L23.1405 1.5H119.5H282.859L304.5 24.1023V49.5V51H306H341.5H435H602.951L624.5 69.1966V398.371L610.949 411.68L597.387 425H542H541.318L540.87 425.514L517.318 452.5H442.75H341.5Z" fill="url(#paint0_linear_87_2)" stroke="#78F2F1" stroke-width="3"/>
<path d="M20.4709 3H283.033L303 23.58V52.5H3V23.58L20.4709 3Z" fill="#78F2F1" fill-opacity="0.45"/>
<path d="M85.616 40C84.1867 39.7867 83.2587 39.136 82.832 38.048C82.4053 36.9387 82.4907 35.5413 83.088 33.856L87.312 21.856C87.696 20.7467 88.1333 19.7973 88.624 19.008C89.136 18.2187 89.7653 17.6107 90.512 17.184C91.28 16.7573 92.2293 16.544 93.36 16.544C95.0667 16.544 96.3467 17.0133 97.2 17.952C98.0747 18.8907 98.8 20.192 99.376 21.856L103.568 33.856C104.165 35.5413 104.272 36.9387 103.888 38.048C103.525 39.136 102.619 39.7867 101.168 40C99.9947 40.1493 98.9707 40.0107 98.096 39.584C97.2427 39.1573 96.7307 38.464 96.56 37.504C96.432 36.864 96.4107 36.3307 96.496 35.904C96.6027 35.4773 96.6987 35.136 96.784 34.88C96.848 34.6667 96.848 34.464 96.784 34.272C96.7413 34.0587 96.5813 33.952 96.304 33.952H90.352C90.0747 33.952 89.904 34.0587 89.84 34.272C89.7973 34.464 89.8187 34.6667 89.904 34.88C89.9893 35.136 90.0747 35.4773 90.16 35.904C90.2453 36.3307 90.2347 36.864 90.128 37.504C89.9573 38.464 89.456 39.1573 88.624 39.584C87.792 40.0107 86.7893 40.1493 85.616 40ZM95.696 29.472L94.032 24.256C93.9893 24.0427 93.9147 23.8827 93.808 23.776C93.7227 23.648 93.5733 23.584 93.36 23.584C93.1467 23.584 92.9867 23.648 92.88 23.776C92.7947 23.8827 92.72 24.0427 92.656 24.256L91.024 29.472H95.696ZM116.656 40C115.589 40 114.725 39.776 114.064 39.328C113.424 38.88 112.954 38.2933 112.656 37.568C112.357 36.8213 112.186 36.0213 112.144 35.168H111.536V36.96C111.536 37.8347 111.269 38.56 110.736 39.136C110.202 39.712 109.466 40 108.528 40C107.546 40 106.8 39.712 106.288 39.136C105.797 38.56 105.552 37.8347 105.552 36.96V18.528C105.552 17.6107 105.797 16.8533 106.288 16.256C106.778 15.6373 107.525 15.328 108.528 15.328C109.53 15.328 110.277 15.6373 110.768 16.256C111.28 16.8533 111.536 17.5893 111.536 18.464V28.16L111.664 28.192C111.877 27.296 112.144 26.4747 112.464 25.728C112.805 24.9813 113.306 24.384 113.968 23.936C114.629 23.488 115.546 23.264 116.72 23.264C118.533 23.264 119.92 24.0107 120.88 25.504C121.84 26.976 122.319 28.9493 122.319 31.424C122.319 34.2613 121.829 36.4053 120.847 37.856C119.888 39.2853 118.49 40 116.656 40ZM111.472 31.168C111.472 31.2747 111.472 31.3813 111.472 31.488C111.493 31.5733 111.514 31.6693 111.536 31.776C111.642 32.224 111.898 32.5653 112.304 32.8C112.73 33.0133 113.392 33.12 114.288 33.12C115.354 33.12 116.08 32.96 116.464 32.64C116.869 32.32 117.072 31.8293 117.072 31.168C117.072 30.4853 116.88 29.984 116.496 29.664C116.112 29.344 115.386 29.184 114.32 29.184C113.402 29.184 112.73 29.3013 112.304 29.536C111.898 29.7493 111.642 30.0907 111.536 30.56C111.514 30.6453 111.493 30.7413 111.472 30.848C111.472 30.9333 111.472 31.04 111.472 31.168ZM131.834 40.064C129.338 40.064 127.344 39.328 125.85 37.856C124.378 36.3627 123.642 34.2613 123.642 31.552C123.642 29.888 123.984 28.4267 124.666 27.168C125.349 25.9093 126.298 24.928 127.514 24.224C128.752 23.4987 130.192 23.136 131.834 23.136C133.669 23.136 135.194 23.4987 136.41 24.224C137.626 24.928 138.533 25.9093 139.13 27.168C139.749 28.4267 140.058 29.888 140.058 31.552C140.058 34.2613 139.376 36.3627 138.01 37.856C136.666 39.328 134.608 40.064 131.834 40.064ZM127.45 31.008C127.45 31.6693 127.781 32.1387 128.442 32.416C129.104 32.672 130.234 32.8 131.834 32.8C133.434 32.8 134.565 32.672 135.226 32.416C135.888 32.1387 136.218 31.6693 136.218 31.008C136.218 30.368 135.888 29.92 135.226 29.664C134.565 29.408 133.434 29.28 131.834 29.28C130.234 29.28 129.104 29.408 128.442 29.664C127.781 29.92 127.45 30.368 127.45 31.008ZM146.422 40C144.928 40 143.712 39.4347 142.774 38.304C141.835 37.1733 141.355 35.584 141.334 33.536L141.302 26.144C141.302 25.2267 141.579 24.512 142.134 24C142.71 23.4667 143.488 23.2 144.47 23.2C145.408 23.2 146.166 23.4667 146.742 24C147.318 24.512 147.606 25.2267 147.606 26.144V32.832C147.606 34.432 148.235 35.232 149.494 35.232C150.112 35.232 150.528 35.008 150.742 34.56C150.955 34.0907 151.062 33.4933 151.062 32.768V26.144C151.062 25.312 151.35 24.6187 151.926 24.064C152.502 23.488 153.248 23.2 154.166 23.2C155.126 23.2 155.862 23.488 156.374 24.064C156.907 24.6187 157.174 25.312 157.174 26.144V36.64C157.174 37.664 156.939 38.4853 156.47 39.104C156.022 39.7013 155.286 40 154.262 40C153.259 40 152.47 39.7013 151.894 39.104C151.339 38.4853 151.062 37.664 151.062 36.64V36.096H150.486C150.486 37.3333 150.112 38.2933 149.366 38.976C148.64 39.6587 147.659 40 146.422 40ZM168.113 40.096C166.982 40.096 165.958 39.84 165.041 39.328C164.145 38.816 163.441 38.0907 162.929 37.152C162.417 36.192 162.161 35.072 162.161 33.792V28.16L160.977 28.32C160.337 28.4053 159.771 28.1813 159.281 27.648C158.79 27.1147 158.545 26.4427 158.545 25.632C158.545 24.8213 158.79 24.16 159.281 23.648C159.771 23.1147 160.337 22.8907 160.977 22.976L162.161 23.136L162.129 20.96C162.107 20.1067 162.353 19.4347 162.865 18.944C163.377 18.432 164.123 18.176 165.105 18.176C166.086 18.176 166.843 18.432 167.377 18.944C167.91 19.4347 168.155 20.1067 168.113 20.96L168.049 23.136L169.745 22.912C170.897 22.7413 171.771 22.9547 172.369 23.552C172.966 24.128 173.265 24.8213 173.265 25.632C173.265 26.4427 172.966 27.1467 172.369 27.744C171.793 28.32 170.95 28.5333 169.841 28.384L168.049 28.16V32.928C168.049 33.2053 168.145 33.4613 168.337 33.696C168.529 33.9093 168.763 33.9733 169.041 33.888C169.361 33.8027 169.691 33.6213 170.033 33.344C170.395 33.0667 170.854 32.928 171.409 32.928C172.241 32.928 172.881 33.2267 173.329 33.824C173.777 34.4213 174.001 35.1573 174.001 36.032C174.001 36.7147 173.755 37.376 173.265 38.016C172.795 38.6347 172.123 39.136 171.249 39.52C170.374 39.904 169.329 40.096 168.113 40.096ZM184.601 40C183.491 40 182.67 39.6693 182.137 39.008C181.603 38.3467 181.337 37.4613 181.337 36.352V21.44C181.337 19.8187 181.774 18.624 182.649 17.856C183.545 17.088 184.611 16.704 185.849 16.704C187.022 16.704 188.014 17.088 188.825 17.856C189.657 18.624 190.265 19.84 190.649 21.504L193.145 32.352H193.977L196.472 21.504C196.856 19.84 197.465 18.624 198.297 17.856C199.15 17.088 200.163 16.704 201.337 16.704C202.574 16.704 203.63 17.088 204.505 17.856C205.401 18.624 205.849 19.8187 205.849 21.44V36.352C205.849 37.4613 205.571 38.3467 205.017 39.008C204.483 39.6693 203.662 40 202.553 40C201.486 40 200.665 39.6693 200.089 39.008C199.513 38.3467 199.225 37.4613 199.225 36.352V27.744C199.225 27.5307 199.193 27.3387 199.128 27.168C199.086 26.976 198.947 26.88 198.713 26.88C198.521 26.88 198.382 26.976 198.297 27.168C198.211 27.3387 198.147 27.5307 198.105 27.744L196.889 35.808C196.739 36.6827 196.558 37.44 196.345 38.08C196.153 38.6987 195.843 39.1787 195.417 39.52C194.99 39.84 194.371 40 193.561 40C192.771 40 192.153 39.84 191.705 39.52C191.278 39.1787 190.958 38.6987 190.745 38.08C190.553 37.44 190.393 36.6827 190.265 35.808L189.017 27.744C188.995 27.5307 188.942 27.3387 188.857 27.168C188.771 26.976 188.622 26.88 188.409 26.88C188.195 26.88 188.057 26.976 187.993 27.168C187.929 27.3387 187.897 27.5307 187.897 27.744V36.352C187.897 37.4613 187.609 38.3467 187.033 39.008C186.478 39.6693 185.667 40 184.601 40ZM207.611 31.68C207.611 29.9947 207.942 28.512 208.603 27.232C209.286 25.952 210.246 24.9493 211.483 24.224C212.742 23.4987 214.235 23.136 215.963 23.136C217.307 23.136 218.512 23.3813 219.579 23.872C220.667 24.3627 221.52 25.024 222.139 25.856C222.758 26.6667 223.067 27.5627 223.067 28.544C223.067 29.568 222.768 30.2933 222.171 30.72C221.574 31.1467 220.688 31.36 219.515 31.36H212.795C212.795 31.9147 213.008 32.3733 213.435 32.736C213.883 33.0987 214.63 33.28 215.675 33.28C216.208 33.28 216.699 33.2267 217.147 33.12C217.616 33.0133 218.086 32.9173 218.555 32.832C219.046 32.7253 219.59 32.672 220.187 32.672C221.04 32.672 221.744 32.9813 222.299 33.6C222.854 34.1973 223.131 35.0293 223.131 36.096C223.131 37.3547 222.48 38.336 221.179 39.04C219.899 39.744 218.214 40.096 216.123 40.096C214.651 40.096 213.264 39.808 211.963 39.232C210.683 38.656 209.638 37.7493 208.827 36.512C208.016 35.2533 207.611 33.6427 207.611 31.68ZM217.979 30.304C218.299 30.304 218.406 30.1547 218.299 29.856C218.214 29.5573 217.958 29.248 217.531 28.928C217.104 28.608 216.486 28.448 215.675 28.448C214.736 28.448 214.032 28.6507 213.563 29.056C213.115 29.4613 212.891 29.8773 212.891 30.304H217.979Z" fill="#265073"/>
<defs>
<linearGradient id="paint0_linear_87_2" x1="313" y1="0" x2="313" y2="446.5" gradientUnits="userSpaceOnUse">
<stop stop-color="#28A7A6"/>
<stop offset="1" stop-color="#59BBBA" stop-opacity="0"/>
</linearGradient>
</defs>
</svg>
